<svg width="23" height="21" viewBox="0 0 23 21" fill="none" xmlns="http://www.w3.org/2000/svg">
<path d="M18.9106 6.80649C18.672 6.72221 18.4248 6.64247 18.1702 6.56706C18.2121 6.39182 18.2505 6.21886 18.2846 6.04883C18.8451 3.25693 18.4786 1.00776 17.2273 0.267239C16.0274 -0.442824 14.0652 0.297531 12.0833 2.06746C11.8928 2.23765 11.7017 2.41785 11.5106 2.6067C11.3834 2.48175 11.2563 2.361 11.1295 2.24551C9.05254 0.352988 6.97068 -0.444546 5.72059 0.298119C4.52187 1.01024 4.16688 3.12468 4.67138 5.77058C4.7201 6.02614 4.77705 6.28713 4.84145 6.55248C4.5468 6.63831 4.26235 6.72982 3.99019 6.82716C1.55514 7.69839 0 9.06381 0 10.4801C0 11.9429 1.66944 13.4101 4.20573 14.2997C4.40589 14.3699 4.61358 14.4363 4.82761 14.4993C4.75813 14.7863 4.69771 15.0675 4.64698 15.3418C4.16594 17.9418 4.5416 20.0063 5.73712 20.7139C6.97199 21.4447 9.04444 20.6935 11.0625 18.8833C11.222 18.7402 11.3821 18.5884 11.5424 18.4294C11.7503 18.6348 11.9578 18.8292 12.1642 19.0115C14.1189 20.7377 16.0495 21.4347 17.2439 20.7251C18.4776 19.9923 18.8785 17.7745 18.358 15.0763C18.3182 14.8702 18.272 14.6597 18.22 14.4454C18.3655 14.4012 18.5084 14.3557 18.6477 14.3083C21.2845 13.4117 23 11.9624 23 10.4801C23 9.05869 21.3947 7.68406 18.9106 6.80649Z" fill="#53C1DE"/>
<path d="M18.3274 13.3532C18.2018 13.3959 18.073 13.4372 17.9417 13.4773C17.6511 12.531 17.2589 11.5248 16.779 10.4852C17.237 9.47032 17.614 8.47695 17.8965 7.5368C18.1314 7.60671 18.3594 7.68045 18.579 7.75827C20.7039 8.51066 22 9.62309 22 10.4803C22 11.3933 20.6002 12.5785 18.3274 13.3532ZM17.3843 15.2753C17.6141 16.4692 17.6469 17.5487 17.4947 18.3925C17.358 19.1507 17.0829 19.6563 16.7429 19.8587C16.0192 20.2896 14.4718 19.7295 12.8028 18.2523C12.6115 18.083 12.4188 17.9022 12.2255 17.7108C12.8725 16.983 13.5191 16.1368 14.1502 15.1971C15.2603 15.0958 16.309 14.9301 17.26 14.704C17.3069 14.8984 17.3485 15.089 17.3843 15.2753ZM7.84732 19.7843C7.14032 20.0411 6.57723 20.0485 6.23685 19.8466C5.51256 19.4169 5.21146 17.7582 5.62218 15.5333C5.66922 15.2785 5.72522 15.0167 5.78975 14.7492C6.73037 14.9631 7.77142 15.1171 8.88411 15.2099C9.51946 16.1294 10.1848 16.9746 10.8552 17.7147C10.7087 17.8602 10.5628 17.9987 10.4177 18.1292C9.52686 18.9302 8.6341 19.4985 7.84732 19.7843ZM4.53512 13.3476C3.41548 12.9539 2.49084 12.4424 1.85704 11.8841C1.28753 11.3824 1 10.8844 1 10.4803C1 9.62023 2.24655 8.52328 4.32557 7.77769C4.57783 7.68722 4.8419 7.60196 5.11594 7.52187C5.40327 8.48325 5.78019 9.4884 6.23505 10.5048C5.7743 11.5363 5.39203 12.5575 5.10188 13.5301C4.90652 13.4723 4.71724 13.4116 4.53512 13.3476ZM5.6454 5.57389C5.21387 3.30548 5.50046 1.59427 6.22164 1.16487C6.98983 0.707429 8.6885 1.35964 10.4788 2.9948C10.5933 3.09931 10.7082 3.2087 10.8234 3.32188C10.1562 4.05872 9.49702 4.89759 8.86731 5.81172C7.7874 5.91467 6.75367 6.08006 5.80324 6.30153C5.74349 6.05429 5.69056 5.81138 5.6454 5.57389ZM15.5501 8.08955C15.3229 7.68587 15.0896 7.29175 14.8518 6.90838C15.5845 7.00364 16.2864 7.1301 16.9456 7.28485C16.7477 7.93723 16.501 8.61934 16.2106 9.31859C16.0024 8.91185 15.7821 8.50175 15.5501 8.08955ZM11.511 4.04295C11.9634 4.54714 12.4165 5.11006 12.8622 5.72082C12.4131 5.69901 11.9584 5.68765 11.5 5.68765C11.0459 5.68765 10.5946 5.69875 10.1483 5.72019C10.5944 5.11511 11.0515 4.55294 11.511 4.04295ZM7.446 8.09652C7.21904 8.50133 7.00283 8.90921 6.79781 9.31784C6.51216 8.62102 6.26779 7.9358 6.06817 7.27417C6.7233 7.12337 7.42192 7.00007 8.14989 6.90661C7.90875 7.29351 7.67357 7.69054 7.446 8.09644V8.09652ZM8.17086 14.1259C7.41874 14.0396 6.70961 13.9226 6.05464 13.776C6.25745 13.1025 6.50722 12.4027 6.79892 11.6908C7.00446 12.0992 7.22153 12.5072 7.44988 12.9129H7.44992C7.68252 13.3262 7.9235 13.7311 8.17086 14.1259ZM11.5381 16.9887C11.0732 16.4727 10.6095 15.902 10.1566 15.2881C10.5962 15.3058 11.0445 15.3149 11.5 15.3149C11.968 15.3149 12.4307 15.304 12.8861 15.2832C12.439 15.9082 11.9875 16.4798 11.5381 16.9887ZM16.22 11.6546C16.5269 12.3741 16.7856 13.0703 16.9911 13.7322C16.3253 13.8885 15.6065 14.0143 14.8491 14.1078C15.0875 13.7193 15.3228 13.3184 15.554 12.906C15.7879 12.4888 16.01 12.0709 16.22 11.6546ZM14.7043 12.4019C14.3454 13.0421 13.9769 13.6532 13.6028 14.23C12.9214 14.2801 12.2175 14.3059 11.5 14.3059C10.7855 14.3059 10.0904 14.2831 9.42108 14.2384C9.0319 13.654 8.65539 13.0411 8.29874 12.4074H8.29883C7.94312 11.7755 7.61574 11.1382 7.31909 10.5045C7.61566 9.86928 7.94218 9.23128 8.29584 8.60046L8.29576 8.60059C8.65036 7.96809 9.02356 7.35817 9.40915 6.77742C10.092 6.72433 10.7923 6.69662 11.5 6.69662H11.5C12.2109 6.69662 12.9121 6.72454 13.5947 6.7781C13.9744 7.3546 14.3451 7.96254 14.7011 8.59512C15.0611 9.23481 15.3919 9.86857 15.691 10.4901C15.3928 11.1224 15.0628 11.7625 14.7043 12.4019ZM16.7278 1.13485C17.4968 1.59095 17.7958 3.43038 17.3127 5.84245C17.2819 5.99636 17.2472 6.15312 17.2095 6.312C16.2568 6.0859 15.2224 5.91766 14.1393 5.81314C13.5084 4.88897 12.8545 4.0488 12.1983 3.32141C12.3747 3.14682 12.5509 2.98034 12.7264 2.82324C14.4216 1.30579 16.006 0.706672 16.7278 1.13485Z" fill="white"/>
<path d="M11 8C12.1046 8 13 8.89541 13 10C13 11.1046 12.1046 12 11 12C9.89545 12 9 11.1046 9 10C9 8.89541 9.89545 8 11 8Z" fill="#53C1DE"/>
</svg>
