<svg width="50" height="50" viewBox="0 0 50 50" fill="none" xmlns="http://www.w3.org/2000/svg">
<path d="M25.0001 4.16669C13.4897 4.16669 4.16675 13.4896 4.16675 25C4.16439 29.3735 5.53928 33.6367 8.09637 37.1848C10.6535 40.7328 14.2629 43.3856 18.4126 44.7667C19.4543 44.9479 19.8438 44.3229 19.8438 43.775C19.8438 43.2813 19.8168 41.6417 19.8168 39.8959C14.5834 40.8604 13.2293 38.6209 12.8126 37.4479C12.5772 36.8479 11.5626 35 10.6772 34.5042C9.948 34.1146 8.90633 33.15 10.6501 33.125C12.2918 33.0979 13.4626 34.6354 13.8543 35.2604C15.7293 38.4104 18.7251 37.525 19.9209 36.9792C20.1043 35.625 20.6501 34.7146 21.2501 34.1938C16.6147 33.6729 11.7709 31.875 11.7709 23.9063C11.7709 21.6396 12.5772 19.7667 13.9063 18.3063C13.698 17.7854 12.9688 15.65 14.1147 12.7854C14.1147 12.7854 15.8584 12.2396 19.8438 14.9229C21.5398 14.4522 23.2921 14.2153 25.0522 14.2188C26.823 14.2188 28.5938 14.4521 30.2605 14.9209C34.2438 12.2125 35.9897 12.7875 35.9897 12.7875C37.1355 15.6521 36.4063 17.7875 36.198 18.3084C37.5251 19.7667 38.3334 21.6146 38.3334 23.9063C38.3334 31.9021 33.4647 33.6729 28.8293 34.1938C29.5834 34.8438 30.2355 36.0938 30.2355 38.0479C30.2355 40.8334 30.2084 43.0729 30.2084 43.7771C30.2084 44.3229 30.6001 44.9729 31.6418 44.7646C35.7772 43.3683 39.3708 40.7104 41.9165 37.1649C44.4623 33.6194 45.8322 29.3648 45.8334 25C45.8334 13.4896 36.5105 4.16669 25.0001 4.16669Z" fill="black"/>
</svg>
