<svg width="50" height="50" viewBox="0 0 50 50" fill="none" xmlns="http://www.w3.org/2000/svg">
<path d="M42.6292 6.72919C42.948 6.72919 43.2688 6.89169 43.4292 7.0521C43.508 7.1999 43.5492 7.36482 43.5492 7.53231C43.5492 7.6998 43.508 7.86472 43.4292 8.01252L30.7688 30.45L38.7813 45.1917C38.8605 45.3397 38.9019 45.505 38.9019 45.6729C38.9019 45.8408 38.8605 46.0061 38.7813 46.1542C38.5623 46.3545 38.2781 46.4685 37.9813 46.475H32.2105C31.4105 46.475 30.9292 45.8334 30.6084 45.3521L22.4355 30.4479C22.9167 29.8084 35.2563 7.85419 35.2563 7.85419C35.5772 7.2146 36.0584 6.73335 36.8605 6.73335H42.6292V6.72919ZM18.5897 14.5834C19.3917 14.5834 19.8709 15.225 20.1938 15.7042L24.198 22.5959C23.8792 22.9167 17.948 33.4917 17.948 33.4917C17.6292 33.975 17.148 34.6167 16.3459 34.6167H10.7376C10.4401 34.6107 10.155 34.4966 9.9355 34.2959C9.85635 34.1478 9.81494 33.9825 9.81494 33.8146C9.81494 33.6467 9.85635 33.4814 9.9355 33.3334L15.8647 22.5959L12.0188 15.8667C11.9397 15.7186 11.8983 15.5533 11.8983 15.3854C11.8983 15.2175 11.9397 15.0522 12.0188 14.9042C12.2384 14.7034 12.5235 14.5894 12.8209 14.5834H18.5917H18.5897Z" fill="black"/>
</svg>
